<svg id="svg" version="1.1" xmlns="http://www.w3.org/2000/svg" xmlns:xlink="http://www.w3.org/1999/xlink" width="400" height="400" viewBox="0, 0, 400,400"><g id="svgg"><path id="path0" d="M190.400 95.270 C 180.200 96.961,168.469 100.854,163.938 104.051 C 163.354 104.463,162.768 104.800,162.635 104.800 C 161.090 104.800,148.768 114.746,144.981 119.050 C 124.989 141.771,120.504 169.623,131.847 200.600 C 135.113 209.520,142.098 224.923,144.997 229.600 C 145.474 230.370,146.547 232.260,147.382 233.800 C 151.286 241.004,161.327 256.917,165.302 262.199 C 165.468 262.420,167.541 265.210,169.909 268.400 C 172.277 271.590,174.990 275.190,175.937 276.400 C 176.884 277.610,178.140 279.219,178.729 279.976 C 185.935 289.237,199.536 304.400,200.637 304.400 C 201.158 304.400,204.390 301.105,209.267 295.600 C 213.563 290.751,222.056 280.409,224.200 277.416 C 224.640 276.802,225.369 275.827,225.821 275.250 C 237.205 260.685,256.289 229.269,261.573 216.396 C 261.888 215.628,262.672 213.830,263.316 212.400 C 265.596 207.336,265.353 207.947,267.854 201.000 C 275.551 179.620,276.348 163.266,270.553 145.600 C 263.649 124.550,246.225 106.600,225.600 99.290 C 219.761 97.221,219.473 97.135,216.400 96.546 C 207.461 94.835,196.322 94.288,190.400 95.270 M209.800 129.582 C 222.522 133.042,232.773 143.519,236.233 156.600 C 237.680 162.071,237.169 173.063,235.248 177.800 C 220.820 213.381,173.600 210.483,163.542 173.400 C 162.653 170.122,162.885 159.709,163.927 156.068 C 169.711 135.870,189.950 124.184,209.800 129.582 " stroke="none" fill="#fa6535" fill-rule="evenodd"></path><path id="path1" d="M0.000 200.000 L 0.000 400.000 200.000 400.000 L 400.000 400.000 400.000 200.000 L 400.000 0.000 200.000 0.000 L 0.000 0.000 0.000 200.000 M169.002 94.403 C 169.139 94.624,168.962 94.917,168.608 95.052 C 167.842 95.346,167.415 95.022,167.784 94.427 C 168.116 93.889,168.678 93.878,169.002 94.403 M212.800 94.720 C 213.570 94.957,215.640 95.441,217.400 95.795 C 222.045 96.729,223.556 97.167,225.839 98.241 C 226.960 98.768,228.070 99.200,228.306 99.200 C 228.541 99.200,229.604 99.635,230.667 100.168 C 232.219 100.945,233.022 101.098,234.741 100.946 C 236.385 100.800,236.842 100.877,236.709 101.278 C 236.499 101.915,234.800 102.227,234.800 101.628 C 234.800 101.393,234.485 101.203,234.100 101.207 C 233.648 101.211,233.897 101.514,234.800 102.060 C 235.570 102.526,236.688 103.242,237.284 103.653 C 237.880 104.064,238.600 104.407,238.884 104.416 C 239.168 104.425,240.023 104.965,240.785 105.616 C 241.547 106.267,242.324 106.800,242.513 106.800 C 242.702 106.800,243.133 107.076,243.471 107.414 C 243.809 107.752,245.103 108.719,246.346 109.564 C 247.590 110.408,250.095 112.607,251.913 114.450 C 254.382 116.953,255.304 117.663,255.559 117.257 C 255.988 116.575,256.495 117.286,256.175 118.120 C 256.047 118.454,256.455 119.300,257.107 120.056 C 257.745 120.795,259.090 122.422,260.096 123.670 C 261.103 124.919,262.033 125.834,262.163 125.704 C 262.293 125.573,262.400 125.742,262.400 126.078 C 262.400 126.414,263.275 128.019,264.345 129.645 C 266.498 132.915,268.399 136.495,268.402 137.287 C 268.404 137.569,268.678 138.324,269.013 138.965 C 269.347 139.606,270.163 141.766,270.825 143.765 C 271.488 145.764,272.396 148.506,272.844 149.857 C 274.248 154.097,275.093 160.789,275.162 168.220 C 275.183 170.431,275.343 172.411,275.517 172.620 C 275.692 172.829,275.718 173.720,275.574 174.600 L 275.314 176.200 275.201 174.400 C 275.117 173.056,275.010 173.475,274.781 176.053 C 274.408 180.235,273.293 186.946,272.772 188.135 C 272.564 188.611,272.141 190.260,271.833 191.800 C 271.227 194.822,268.455 203.184,267.183 205.826 C 266.752 206.721,266.400 207.635,266.400 207.858 C 266.400 208.082,265.951 209.150,265.402 210.232 C 264.853 211.314,264.403 212.393,264.402 212.629 C 264.401 212.865,263.821 214.215,263.112 215.629 C 262.404 217.043,261.810 218.380,261.791 218.600 C 261.773 218.820,261.441 219.597,261.054 220.328 C 260.667 221.058,259.618 223.038,258.722 224.728 C 255.306 231.170,254.800 232.191,254.800 232.640 C 254.800 232.894,254.541 233.317,254.223 233.581 C 253.906 233.844,253.060 235.261,252.343 236.730 C 251.625 238.198,250.747 239.760,250.391 240.200 C 250.035 240.640,248.962 242.350,248.007 244.000 C 247.052 245.650,245.693 247.900,244.987 249.000 C 244.281 250.100,243.185 251.880,242.552 252.955 C 241.918 254.030,241.068 255.470,240.662 256.155 C 240.256 256.840,239.603 257.760,239.212 258.200 C 237.943 259.626,237.480 260.800,238.186 260.800 C 238.821 260.800,238.998 261.269,238.537 261.730 C 238.392 261.875,238.028 261.789,237.727 261.540 C 237.427 261.290,237.136 261.157,237.083 261.243 C 237.029 261.329,236.043 262.802,234.892 264.516 C 233.741 266.230,232.795 267.760,232.789 267.916 C 232.783 268.072,232.243 268.725,231.589 269.367 C 230.935 270.008,230.400 270.708,230.400 270.921 C 230.400 271.134,229.995 271.717,229.500 272.216 C 229.005 272.716,228.418 273.367,228.196 273.662 C 227.975 273.958,227.210 274.946,226.496 275.858 C 225.783 276.769,225.200 277.679,225.200 277.879 C 225.200 278.079,224.570 278.854,223.800 279.600 C 223.030 280.346,222.400 281.113,222.400 281.304 C 222.400 281.495,221.946 282.135,221.390 282.726 C 220.502 283.671,216.425 288.733,213.280 292.795 C 212.686 293.563,211.480 294.930,210.600 295.833 C 208.991 297.485,206.232 300.522,205.297 301.672 C 204.863 302.205,204.932 302.264,205.797 302.099 C 206.539 301.957,206.800 302.078,206.800 302.566 C 206.800 303.452,205.736 303.811,204.977 303.181 C 204.463 302.754,204.127 302.900,202.882 304.091 C 201.194 305.707,198.800 306.345,198.800 305.179 C 198.800 304.804,197.675 303.326,196.300 301.896 C 194.925 300.465,192.779 298.148,191.532 296.747 C 190.285 295.346,188.395 293.233,187.332 292.052 C 186.269 290.871,185.040 289.446,184.600 288.886 C 184.160 288.326,183.346 287.402,182.790 286.834 C 182.235 286.265,181.252 285.080,180.606 284.200 C 179.961 283.320,179.193 282.417,178.900 282.193 C 178.607 281.969,178.149 281.404,177.883 280.936 C 177.618 280.469,176.406 278.852,175.191 277.343 C 173.975 275.834,172.715 274.221,172.391 273.759 C 170.160 270.582,168.173 268.070,166.100 265.805 C 165.385 265.024,164.800 264.063,164.800 263.668 C 164.800 263.274,164.481 262.602,164.092 262.175 C 163.345 261.357,159.200 255.338,159.200 255.071 C 159.200 254.465,153.308 246.164,152.960 246.280 C 152.718 246.361,152.268 246.117,151.960 245.738 C 151.466 245.131,151.482 245.081,152.100 245.313 C 153.077 245.679,152.965 245.336,151.217 242.600 C 150.374 241.280,149.185 239.255,148.576 238.100 C 147.967 236.945,147.240 236.000,146.959 236.000 C 146.679 236.000,146.475 235.664,146.506 235.253 C 146.566 234.458,144.039 230.000,143.528 230.000 C 143.361 230.000,143.322 229.747,143.441 229.437 C 143.560 229.128,143.194 228.141,142.629 227.245 C 142.063 226.349,141.600 225.443,141.600 225.232 C 141.600 225.020,141.464 224.763,141.298 224.661 C 141.132 224.558,140.997 225.043,140.998 225.737 C 141.000 227.251,139.459 227.834,139.098 226.455 C 138.842 225.475,139.693 223.762,140.362 223.910 C 140.636 223.970,140.779 223.880,140.681 223.710 C 140.484 223.367,138.117 218.338,136.393 214.600 C 134.270 209.997,133.697 208.591,133.418 207.300 C 133.263 206.585,132.971 206.000,132.768 206.000 C 132.566 206.000,132.400 205.640,132.400 205.200 C 132.400 204.760,132.205 204.445,131.967 204.500 C 131.729 204.555,131.464 203.880,131.379 203.000 C 131.294 202.120,131.051 201.040,130.841 200.600 C 130.630 200.160,129.967 198.274,129.366 196.409 C 128.510 193.752,128.205 193.190,127.955 193.809 C 127.765 194.279,127.730 193.911,127.868 192.905 C 127.996 191.972,127.899 190.712,127.652 190.105 C 125.804 185.553,124.536 171.587,125.187 162.945 C 125.449 159.455,125.690 155.845,125.722 154.922 C 125.754 153.999,125.898 153.434,126.041 153.667 C 126.185 153.899,126.399 153.484,126.519 152.744 C 127.141 148.881,128.656 144.088,130.597 139.844 C 131.149 138.638,131.600 137.443,131.600 137.187 C 131.600 136.932,131.948 136.235,132.373 135.637 C 132.799 135.040,133.278 134.030,133.437 133.393 C 133.597 132.757,134.149 131.814,134.664 131.300 C 135.179 130.785,135.600 130.147,135.600 129.882 C 135.601 129.617,136.051 128.877,136.600 128.238 C 137.150 127.599,137.600 126.849,137.600 126.571 C 137.600 126.294,137.746 126.007,137.924 125.933 C 138.101 125.860,139.046 124.720,140.024 123.400 C 141.001 122.080,142.025 120.762,142.300 120.471 C 142.575 120.181,142.800 119.791,142.800 119.605 C 142.800 119.419,142.575 119.185,142.300 119.085 C 141.700 118.867,142.342 117.553,143.185 117.272 C 143.578 117.141,143.646 117.391,143.452 118.248 C 143.196 119.376,143.220 119.367,144.592 117.800 C 145.362 116.920,145.910 115.975,145.809 115.700 C 145.708 115.425,145.873 115.200,146.177 115.200 C 146.480 115.200,147.664 114.435,148.807 113.500 C 149.950 112.565,151.811 111.043,152.943 110.118 C 154.074 109.193,155.194 108.428,155.430 108.418 C 155.667 108.408,156.283 107.950,156.800 107.400 C 157.317 106.850,157.978 106.400,158.270 106.400 C 158.561 106.400,158.800 106.248,158.800 106.063 C 158.800 105.878,159.470 105.383,160.290 104.963 C 161.109 104.543,162.208 103.818,162.732 103.350 C 163.255 102.883,164.430 102.266,165.342 101.979 C 166.254 101.692,167.270 101.254,167.600 101.004 C 167.930 100.754,169.010 100.227,170.000 99.831 C 170.990 99.436,172.250 98.931,172.800 98.709 C 176.799 97.097,179.883 96.238,185.600 95.140 C 186.810 94.908,188.520 94.570,189.400 94.390 C 191.673 93.924,211.102 94.198,212.800 94.720 M174.395 96.383 L 175.391 97.147 174.269 97.574 C 171.897 98.476,170.552 97.674,172.169 96.321 C 173.203 95.456,173.190 95.456,174.395 96.383 M231.600 98.629 C 231.600 99.002,231.328 99.206,230.933 99.129 C 229.930 98.935,229.792 98.000,230.767 98.000 C 231.258 98.000,231.600 98.258,231.600 98.629 M169.000 99.600 C 169.136 99.820,168.913 100.000,168.504 100.000 C 168.095 100.000,167.564 100.196,167.325 100.435 C 167.012 100.748,166.814 100.747,166.619 100.431 C 166.467 100.185,166.754 99.831,167.274 99.622 C 168.501 99.130,168.708 99.127,169.000 99.600 M151.316 107.300 C 152.359 108.079,151.622 108.885,150.420 108.281 C 149.205 107.670,148.894 106.800,149.890 106.800 C 150.306 106.800,150.948 107.025,151.316 107.300 M261.200 115.800 C 261.200 116.436,259.795 116.639,259.434 116.056 C 259.139 115.578,259.595 115.200,260.467 115.200 C 260.870 115.200,261.200 115.470,261.200 115.800 M140.666 120.627 C 141.052 121.634,140.150 122.228,139.651 121.296 C 139.234 120.516,139.404 120.000,140.079 120.000 C 140.269 120.000,140.533 120.282,140.666 120.627 M260.800 121.800 C 260.800 122.130,260.530 122.400,260.200 122.400 C 259.870 122.400,259.600 122.130,259.600 121.800 C 259.600 121.470,259.870 121.200,260.200 121.200 C 260.530 121.200,260.800 121.470,260.800 121.800 M137.200 125.800 C 137.200 126.130,137.020 126.400,136.800 126.400 C 136.580 126.400,136.400 126.130,136.400 125.800 C 136.400 125.470,136.580 125.200,136.800 125.200 C 137.020 125.200,137.200 125.470,137.200 125.800 M194.600 129.602 C 189.942 130.482,188.539 130.921,185.126 132.566 C 178.828 135.602,174.470 139.079,171.163 143.708 C 170.413 144.757,169.395 146.107,168.900 146.708 C 168.405 147.308,167.713 148.790,167.362 150.000 C 167.011 151.210,166.546 152.417,166.329 152.681 C 166.111 152.946,165.659 154.026,165.324 155.081 C 163.559 160.644,163.161 167.199,164.321 171.600 C 164.755 173.250,165.238 175.320,165.392 176.200 C 165.546 177.080,166.106 178.717,166.636 179.839 C 167.166 180.960,167.600 182.057,167.600 182.277 C 167.600 182.496,167.979 183.019,168.443 183.438 C 168.906 183.857,169.650 184.920,170.097 185.800 C 170.927 187.437,173.200 189.930,173.200 189.203 C 173.200 188.982,173.470 188.800,173.800 188.800 C 174.527 188.800,174.596 189.450,173.900 189.745 C 173.309 189.996,177.984 194.537,179.800 195.476 C 180.460 195.817,181.270 196.319,181.600 196.590 C 182.272 197.143,185.469 198.824,187.600 199.746 C 189.162 200.422,195.138 201.395,195.501 201.033 C 195.629 200.905,195.253 200.800,194.667 200.800 C 194.080 200.800,193.600 200.620,193.600 200.400 C 193.600 199.957,197.197 199.859,199.150 200.250 C 200.591 200.538,200.833 201.197,199.500 201.206 C 198.936 201.210,198.778 201.326,199.078 201.516 C 199.800 201.975,207.727 201.326,209.683 200.648 C 213.562 199.302,216.707 197.844,218.501 196.560 C 219.546 195.812,220.536 195.197,220.701 195.192 C 220.865 195.188,221.709 194.566,222.575 193.810 C 223.746 192.788,223.927 192.494,223.280 192.663 C 222.224 192.939,221.669 191.881,222.404 190.995 C 223.109 190.146,224.000 190.260,224.000 191.200 C 224.000 191.640,224.135 192.001,224.300 192.002 C 224.596 192.003,230.000 186.440,230.000 186.133 C 230.000 186.046,230.723 184.700,231.606 183.142 C 232.489 181.583,233.418 179.473,233.671 178.454 C 233.923 177.434,234.302 176.486,234.513 176.347 C 237.258 174.532,236.418 158.066,233.240 151.400 C 232.611 150.080,231.980 148.619,231.838 148.153 C 231.696 147.687,231.224 146.984,230.790 146.591 C 230.355 146.198,230.000 145.679,230.000 145.438 C 230.000 144.870,222.051 136.606,220.996 136.078 C 220.553 135.856,219.732 135.762,219.171 135.869 C 218.510 135.996,217.952 135.824,217.584 135.380 C 217.061 134.751,217.127 134.717,218.408 134.963 C 219.795 135.229,219.796 135.228,218.800 134.621 C 211.785 130.352,201.704 128.261,194.600 129.602 M201.600 130.447 C 201.600 130.641,201.060 130.800,200.400 130.800 C 199.297 130.800,198.892 130.442,199.409 129.924 C 199.732 129.602,201.600 130.047,201.600 130.447 M198.400 131.000 C 197.850 131.662,196.800 131.813,196.800 131.229 C 196.800 130.901,197.507 130.585,198.549 130.446 C 198.741 130.421,198.674 130.670,198.400 131.000 M214.856 133.187 L 215.800 133.973 214.400 133.981 C 212.576 133.990,211.531 133.377,212.400 132.806 C 213.281 132.228,213.802 132.309,214.856 133.187 M176.914 139.606 C 176.648 140.624,176.048 141.008,175.531 140.491 C 175.266 140.226,175.442 139.876,176.055 139.446 C 177.201 138.644,177.168 138.637,176.914 139.606 M129.638 140.909 C 129.148 142.233,128.400 142.227,128.400 140.900 C 128.400 139.489,128.751 139.061,129.439 139.633 C 129.770 139.907,129.840 140.362,129.638 140.909 M223.600 141.951 C 223.600 142.455,222.426 143.359,222.141 143.074 C 221.731 142.665,222.343 141.600,222.987 141.600 C 223.324 141.600,223.600 141.758,223.600 141.951 M173.600 143.400 C 173.600 143.730,173.525 144.000,173.433 144.000 C 173.341 144.000,172.981 144.109,172.633 144.243 C 172.226 144.399,172.000 144.268,172.000 143.876 C 172.000 143.323,172.508 142.915,173.300 142.832 C 173.465 142.814,173.600 143.070,173.600 143.400 M275.440 147.782 C 275.305 148.323,274.977 149.268,274.712 149.882 L 274.230 151.000 274.088 149.458 C 273.913 147.552,274.180 146.800,275.031 146.800 C 275.528 146.800,275.627 147.038,275.440 147.782 M276.045 152.515 C 275.718 152.842,275.600 152.797,275.600 152.347 C 275.600 151.552,276.138 151.014,276.337 151.610 C 276.421 151.863,276.290 152.270,276.045 152.515 M275.520 155.000 C 275.520 156.167,275.511 156.172,275.200 155.200 C 275.024 154.650,274.880 153.660,274.880 153.000 C 274.880 151.833,274.889 151.828,275.200 152.800 C 275.376 153.350,275.520 154.340,275.520 155.000 M279.200 187.024 C 279.200 187.341,278.930 187.600,278.600 187.600 C 277.998 187.600,277.778 186.756,278.256 186.278 C 278.629 185.904,279.200 186.355,279.200 187.024 M221.066 188.627 C 221.399 189.496,220.553 190.313,219.947 189.707 C 219.435 189.195,219.752 188.000,220.400 188.000 C 220.634 188.000,220.933 188.282,221.066 188.627 M226.800 188.757 C 226.800 188.954,226.530 189.218,226.200 189.345 C 225.835 189.485,225.600 189.345,225.600 188.987 C 225.600 188.664,225.870 188.400,226.200 188.400 C 226.530 188.400,226.800 188.561,226.800 188.757 M176.900 190.865 C 177.641 190.743,177.887 191.775,177.216 192.190 C 176.698 192.511,175.200 191.538,175.200 190.880 C 175.200 190.558,175.394 190.475,175.700 190.666 C 175.975 190.839,176.515 190.928,176.900 190.865 M219.600 194.176 C 219.600 194.986,218.943 195.299,217.922 194.975 C 217.080 194.708,217.076 194.680,217.802 194.149 C 218.777 193.436,219.600 193.448,219.600 194.176 M272.000 198.200 C 272.000 198.530,271.820 198.800,271.600 198.800 C 271.380 198.800,271.200 198.530,271.200 198.200 C 271.200 197.870,271.380 197.600,271.600 197.600 C 271.820 197.600,272.000 197.870,272.000 198.200 M126.080 200.080 C 125.707 200.453,125.600 200.347,125.600 199.600 C 125.600 198.853,125.707 198.747,126.080 199.120 C 126.453 199.493,126.453 199.707,126.080 200.080 M210.657 199.400 C 210.327 199.730,209.864 200.000,209.629 200.000 C 209.393 200.000,209.200 199.730,209.200 199.400 C 209.200 199.022,209.581 198.800,210.229 198.800 C 211.143 198.800,211.190 198.867,210.657 199.400 M127.994 204.300 C 127.989 205.101,127.891 205.247,127.631 204.836 C 127.435 204.526,127.367 204.031,127.480 203.736 C 127.804 202.890,128.001 203.106,127.994 204.300 M266.418 218.034 C 266.935 218.999,266.700 219.401,265.817 219.062 C 265.150 218.806,264.951 217.200,265.586 217.200 C 265.798 217.200,266.173 217.575,266.418 218.034 M257.704 230.232 C 257.831 230.898,257.700 231.340,257.333 231.481 C 256.522 231.792,256.323 231.446,256.624 230.247 C 256.959 228.912,257.450 228.905,257.704 230.232 M254.843 235.876 C 254.472 237.265,253.600 237.572,253.600 236.313 C 253.600 235.304,254.324 234.306,254.829 234.618 C 254.994 234.720,255.001 235.286,254.843 235.876 M257.200 239.800 C 257.200 240.130,257.020 240.400,256.800 240.400 C 256.580 240.400,256.400 240.130,256.400 239.800 C 256.400 239.470,256.580 239.200,256.800 239.200 C 257.020 239.200,257.200 239.470,257.200 239.800 M149.508 241.125 C 149.595 241.386,149.382 241.600,149.033 241.600 C 148.685 241.600,148.400 241.315,148.400 240.967 C 148.400 240.260,149.261 240.383,149.508 241.125 M235.129 267.700 C 235.221 268.914,235.184 268.956,234.559 268.331 C 234.191 267.963,234.000 267.378,234.133 267.031 C 234.533 265.988,235.023 266.317,235.129 267.700 M171.011 272.818 C 171.153 273.047,171.042 273.509,170.764 273.843 C 170.314 274.385,170.222 274.383,169.908 273.822 C 169.326 272.782,170.390 271.812,171.011 272.818 M228.772 275.297 C 228.567 276.011,228.400 276.641,228.400 276.697 C 228.400 276.754,228.130 276.800,227.800 276.800 C 226.918 276.800,227.070 275.607,228.061 274.747 C 229.190 273.768,229.207 273.781,228.772 275.297 M214.400 295.439 C 214.400 295.807,213.436 297.601,213.236 297.605 C 213.106 297.608,212.586 297.722,212.079 297.858 C 211.221 298.088,211.089 296.952,211.819 295.600 C 211.934 295.386,214.400 295.231,214.400 295.439 M190.400 296.599 C 191.067 297.847,190.697 298.264,189.433 297.688 C 188.724 297.365,188.521 297.024,188.678 296.423 C 188.970 295.307,189.751 295.387,190.400 296.599 M209.129 299.467 C 209.058 299.834,208.789 300.204,208.531 300.290 C 208.233 300.389,208.141 300.146,208.278 299.623 C 208.534 298.645,209.317 298.502,209.129 299.467 M194.000 300.600 C 194.000 300.930,193.897 301.200,193.771 301.200 C 193.646 301.200,193.273 300.930,192.943 300.600 C 192.410 300.067,192.435 300.000,193.171 300.000 C 193.641 300.000,194.000 300.260,194.000 300.600 M202.600 307.600 C 202.464 307.820,202.093 308.000,201.776 308.000 C 201.459 308.000,201.200 307.820,201.200 307.600 C 201.200 307.380,201.571 307.200,202.024 307.200 C 202.477 307.200,202.736 307.380,202.600 307.600 " stroke="none" fill="#fbfbfb" fill-rule="evenodd"></path><path id="path2" d="M194.600 94.400 C 193.279 94.581,194.841 94.700,199.200 94.750 C 206.766 94.836,216.500 96.122,220.800 97.603 C 229.213 100.500,233.261 102.329,239.082 105.862 C 253.477 114.601,265.270 129.491,270.553 145.600 C 276.348 163.266,275.551 179.620,267.854 201.000 C 265.353 207.947,265.596 207.336,263.316 212.400 C 262.672 213.830,261.888 215.628,261.573 216.396 C 256.289 229.269,237.205 260.685,225.821 275.250 C 225.369 275.827,224.640 276.802,224.200 277.416 C 222.056 280.409,213.563 290.751,209.267 295.600 C 204.390 301.105,201.158 304.400,200.637 304.400 C 199.536 304.400,185.935 289.237,178.729 279.976 C 178.140 279.219,176.884 277.610,175.937 276.400 C 174.990 275.190,172.277 271.590,169.909 268.400 C 167.541 265.210,165.468 262.420,165.302 262.199 C 161.327 256.917,151.286 241.004,147.382 233.800 C 146.547 232.260,145.474 230.370,144.997 229.600 C 144.215 228.339,137.911 215.561,136.609 212.600 C 120.920 176.910,122.244 148.602,140.742 124.200 C 146.099 117.133,160.017 104.800,162.635 104.800 C 162.768 104.800,163.354 104.463,163.938 104.051 C 165.258 103.119,173.578 99.419,176.232 98.583 C 180.306 97.299,184.579 96.290,190.400 95.237 L 192.600 94.838 189.733 94.993 C 188.157 95.078,186.177 95.334,185.333 95.561 C 184.490 95.788,182.540 96.269,181.000 96.630 C 155.681 102.569,133.338 125.166,127.439 150.800 C 127.059 152.450,126.581 154.520,126.375 155.400 C 124.294 164.328,124.957 178.014,128.051 190.000 C 129.980 197.475,133.117 206.170,136.923 214.600 C 139.736 220.829,145.818 232.639,148.355 236.800 C 148.958 237.790,149.566 238.870,149.706 239.200 C 149.965 239.811,153.182 244.925,158.188 252.681 C 160.641 256.483,167.756 266.757,169.073 268.400 C 169.337 268.730,171.033 270.980,172.842 273.400 C 175.833 277.403,183.235 286.522,188.428 292.600 C 192.315 297.150,200.062 305.200,200.555 305.200 C 201.637 305.200,213.833 291.747,219.992 283.757 C 223.094 279.734,229.498 271.266,230.090 270.404 C 230.469 269.852,232.057 267.600,233.618 265.400 C 238.867 258.001,248.015 243.539,251.581 237.000 C 252.541 235.240,253.779 232.990,254.331 232.000 C 258.425 224.669,264.306 212.246,266.166 207.000 C 266.556 205.900,267.108 204.460,267.393 203.800 C 269.181 199.657,271.647 191.259,273.422 183.277 C 276.666 168.681,274.269 150.671,267.077 135.600 C 254.613 109.481,221.575 90.700,194.600 94.400 M192.000 129.155 C 178.369 132.148,167.903 142.181,163.927 156.068 C 162.885 159.709,162.653 170.122,163.542 173.400 C 173.600 210.483,220.820 213.381,235.248 177.800 C 237.169 173.063,237.680 162.071,236.233 156.600 C 231.058 137.035,211.467 124.879,192.000 129.155 M206.400 129.380 C 216.344 131.250,224.898 136.907,230.621 145.400 C 232.321 147.922,234.400 152.066,234.400 152.931 C 234.400 153.211,234.552 153.611,234.739 153.820 C 237.074 156.441,237.104 171.486,234.787 177.400 C 221.818 210.491,177.380 210.491,165.201 177.400 C 155.810 151.885,179.464 124.315,206.400 129.380 " stroke="none" fill="#fbc1a5" fill-rule="evenodd"></path><path id="path3" d="M189.061 94.419 C 184.101 95.252,187.440 95.239,194.200 94.399 L 196.600 94.101 193.800 94.098 C 192.260 94.096,190.127 94.241,189.061 94.419 M208.000 94.585 C 212.977 95.251,213.729 95.281,212.422 94.759 C 211.885 94.544,209.725 94.291,207.622 94.196 L 203.800 94.023 208.000 94.585 M181.800 95.853 C 177.140 96.967,169.064 99.897,167.600 101.004 C 167.270 101.254,166.254 101.692,165.342 101.979 C 164.430 102.266,163.255 102.883,162.732 103.350 C 162.208 103.818,161.109 104.543,160.290 104.963 C 159.470 105.383,158.800 105.878,158.800 106.063 C 158.800 106.248,158.561 106.400,158.270 106.400 C 157.978 106.400,157.317 106.850,156.800 107.400 C 156.283 107.950,155.698 108.400,155.500 108.400 C 155.159 108.400,153.285 109.827,148.502 113.729 C 147.347 114.670,145.966 116.033,145.432 116.757 C 144.897 117.481,143.862 118.732,143.130 119.537 C 142.399 120.342,141.001 122.080,140.024 123.400 C 139.046 124.720,138.101 125.860,137.924 125.933 C 137.746 126.007,137.600 126.294,137.600 126.571 C 137.600 126.849,137.150 127.599,136.600 128.238 C 136.051 128.877,135.601 129.617,135.600 129.882 C 135.600 130.147,135.179 130.785,134.664 131.300 C 134.149 131.814,133.597 132.757,133.437 133.393 C 133.278 134.030,132.825 135.012,132.432 135.576 C 132.038 136.139,131.593 137.140,131.443 137.800 C 131.286 138.488,131.788 137.805,132.620 136.200 C 143.144 115.896,161.326 101.087,181.274 96.571 C 182.883 96.206,184.650 95.763,185.200 95.586 L 186.200 95.263 185.200 95.271 C 184.650 95.276,183.120 95.538,181.800 95.853 M214.400 95.600 C 215.867 96.070,217.694 96.070,216.600 95.600 C 216.160 95.411,215.260 95.262,214.600 95.268 C 213.430 95.279,213.425 95.288,214.400 95.600 M220.719 96.997 C 222.544 97.552,224.687 98.276,225.480 98.608 C 226.274 98.939,227.011 99.123,227.118 99.015 C 227.580 98.553,222.001 96.585,219.200 96.223 C 217.858 96.049,218.245 96.246,220.719 96.997 M227.633 99.354 C 227.725 99.438,228.790 99.928,230.000 100.442 C 245.447 107.003,259.095 119.944,267.079 135.600 C 267.584 136.590,267.997 137.614,267.998 137.876 C 267.999 138.138,268.187 138.468,268.416 138.610 C 269.700 139.404,267.324 134.169,264.345 129.645 C 263.275 128.019,262.400 126.625,262.400 126.548 C 262.400 126.470,262.055 126.000,261.634 125.503 C 261.213 125.006,259.758 123.250,258.400 121.600 C 254.645 117.038,248.895 111.294,246.357 109.571 C 245.107 108.722,243.809 107.752,243.471 107.414 C 243.133 107.076,242.702 106.800,242.513 106.800 C 242.324 106.800,241.547 106.267,240.785 105.616 C 240.023 104.965,239.107 104.425,238.749 104.416 C 238.391 104.407,237.904 104.166,237.666 103.879 C 237.428 103.593,235.831 102.680,234.117 101.850 C 232.403 101.020,230.522 100.084,229.938 99.771 C 229.008 99.271,227.186 98.941,227.633 99.354 M194.800 129.205 C 193.986 129.379,194.824 129.423,196.800 129.310 C 200.970 129.071,206.941 129.730,210.345 130.803 C 213.214 131.708,219.600 134.768,219.600 135.238 C 219.600 135.408,220.005 135.669,220.500 135.819 C 221.508 136.125,230.000 144.707,230.000 145.420 C 230.000 145.671,230.353 146.196,230.785 146.586 C 231.217 146.977,231.784 147.950,232.046 148.748 C 232.307 149.547,232.757 150.563,233.045 151.007 C 233.831 152.216,234.774 155.022,235.597 158.600 C 236.001 160.360,236.348 161.362,236.366 160.826 C 236.407 159.648,235.314 154.875,234.782 153.905 C 234.572 153.523,234.400 153.033,234.400 152.816 C 234.400 150.836,230.008 144.054,226.002 139.849 C 218.187 131.647,204.773 127.071,194.800 129.205 M189.632 130.236 C 186.439 131.094,177.062 136.000,178.614 136.000 C 178.834 136.000,179.731 135.512,180.607 134.917 C 182.784 133.436,189.572 130.411,190.800 130.374 C 191.350 130.357,192.160 130.189,192.600 130.000 L 193.400 129.656 192.600 129.654 C 192.160 129.653,190.824 129.915,189.632 130.236 M175.281 138.448 C 172.711 140.894,167.600 147.339,167.600 148.135 C 167.600 148.379,167.909 148.133,168.286 147.589 C 168.663 147.045,169.122 146.420,169.305 146.200 C 169.488 145.980,170.354 144.810,171.230 143.600 C 172.105 142.390,174.031 140.289,175.509 138.932 C 176.987 137.574,178.106 136.372,177.994 136.261 C 177.883 136.150,176.662 137.134,175.281 138.448 M130.197 140.657 C 128.143 145.532,126.009 153.119,126.049 155.400 C 126.068 156.489,126.481 155.150,127.405 151.000 C 128.128 147.755,130.026 141.846,130.827 140.350 C 131.068 139.900,131.171 139.437,131.056 139.323 C 130.941 139.208,130.554 139.808,130.197 140.657 M268.998 139.800 C 269.172 140.240,269.582 141.372,269.910 142.314 C 270.237 143.257,270.597 143.936,270.710 143.823 C 270.967 143.566,269.639 139.942,269.089 139.400 C 268.814 139.130,268.785 139.260,268.998 139.800 M270.863 144.600 C 270.862 144.820,271.103 145.630,271.400 146.400 C 271.697 147.170,271.945 147.530,271.952 147.200 C 271.958 146.870,271.717 146.060,271.414 145.400 C 271.112 144.740,270.864 144.380,270.863 144.600 M272.000 148.505 C 272.000 148.562,272.441 150.317,272.980 152.405 C 273.580 154.727,273.968 155.712,273.980 154.942 C 274.000 153.705,272.543 148.400,272.184 148.400 C 272.083 148.400,272.000 148.447,272.000 148.505 M166.591 150.257 C 165.266 153.376,164.835 154.661,164.180 157.464 C 163.811 159.039,163.593 160.569,163.696 160.864 C 163.798 161.159,164.016 160.590,164.179 159.600 C 164.527 157.496,165.836 153.289,166.344 152.646 C 166.868 151.981,167.712 149.179,167.463 148.930 C 167.344 148.811,166.952 149.408,166.591 150.257 M125.476 157.210 C 125.330 157.755,125.231 159.190,125.256 160.400 L 125.301 162.600 125.657 159.821 C 126.029 156.920,125.931 155.507,125.476 157.210 M274.041 157.400 C 274.057 158.060,274.210 159.500,274.382 160.600 L 274.693 162.600 274.740 160.000 C 274.766 158.570,274.613 157.130,274.400 156.800 C 274.104 156.342,274.019 156.485,274.041 157.400 M163.467 162.267 C 163.320 162.413,163.228 163.988,163.262 165.767 L 163.324 169.000 163.598 165.600 C 163.889 161.991,163.883 161.850,163.467 162.267 M274.954 168.000 C 274.954 170.750,275.018 171.875,275.096 170.500 C 275.174 169.125,275.174 166.875,275.096 165.500 C 275.018 164.125,274.954 165.250,274.954 168.000 M236.528 166.000 C 236.528 167.430,236.601 168.015,236.689 167.300 C 236.778 166.585,236.778 165.415,236.689 164.700 C 236.601 163.985,236.528 164.570,236.528 166.000 M124.951 168.800 C 124.951 171.330,125.016 172.365,125.096 171.100 C 125.175 169.835,125.175 167.765,125.096 166.500 C 125.016 165.235,124.951 166.270,124.951 168.800 M235.928 170.000 C 235.779 170.550,235.559 171.900,235.438 173.000 L 235.218 175.000 235.820 173.200 C 236.151 172.210,236.372 170.860,236.310 170.200 C 236.201 169.027,236.192 169.022,235.928 170.000 M163.600 170.750 C 163.600 171.382,163.870 172.665,164.200 173.600 C 164.530 174.535,164.800 175.717,164.800 176.227 C 164.800 176.736,164.999 177.276,165.243 177.426 C 165.722 177.722,165.629 177.069,164.520 172.300 C 163.838 169.367,163.600 168.966,163.600 170.750 M274.210 177.500 C 274.054 179.205,273.564 182.310,273.120 184.400 C 271.965 189.844,271.893 190.395,272.576 188.600 C 273.589 185.933,275.318 174.400,274.704 174.400 C 274.589 174.400,274.366 175.795,274.210 177.500 M125.240 176.833 C 125.262 177.805,125.431 179.050,125.616 179.600 C 125.826 180.227,125.866 179.630,125.723 178.000 C 125.455 174.956,125.183 174.298,125.240 176.833 M234.306 177.050 C 233.943 177.902,233.530 179.017,233.388 179.527 C 233.246 180.036,232.425 181.696,231.565 183.214 C 230.704 184.733,230.000 186.113,230.000 186.281 C 230.000 186.930,232.130 183.408,233.272 180.869 C 233.933 179.401,234.658 177.813,234.883 177.339 C 235.108 176.866,235.220 176.259,235.130 175.989 C 235.040 175.720,234.670 176.197,234.306 177.050 M165.631 178.400 C 165.637 179.077,167.556 182.821,167.578 182.200 C 167.586 181.980,167.150 180.900,166.609 179.800 C 166.068 178.700,165.628 178.070,165.631 178.400 M126.251 183.200 C 126.570 185.813,127.644 190.489,127.873 190.261 C 128.051 190.082,127.457 187.084,126.432 183.000 L 126.031 181.400 126.251 183.200 M168.304 184.000 C 171.491 189.173,175.411 193.257,180.109 196.297 C 183.251 198.331,187.932 200.601,188.275 200.258 C 188.405 200.128,187.991 199.833,187.355 199.601 C 185.877 199.061,182.380 197.232,181.600 196.590 C 181.270 196.319,180.425 195.805,179.722 195.449 C 177.855 194.504,171.030 187.666,170.090 185.800 C 169.648 184.920,168.870 183.840,168.363 183.400 L 167.442 182.600 168.304 184.000 M225.447 191.000 C 223.086 193.310,220.985 195.200,220.778 195.200 C 220.571 195.200,219.546 195.814,218.501 196.563 C 217.455 197.313,215.350 198.427,213.822 199.037 C 212.294 199.648,211.247 200.216,211.495 200.298 C 213.637 201.012,223.555 194.331,228.043 189.150 C 230.976 185.765,230.319 186.233,225.447 191.000 M271.646 190.888 C 271.595 191.645,268.227 201.887,267.400 203.800 C 266.319 206.302,264.818 210.552,264.964 210.698 C 265.154 210.887,266.400 208.428,266.400 207.865 C 266.400 207.638,266.752 206.721,267.183 205.826 C 269.028 201.994,272.163 191.952,271.863 190.835 C 271.720 190.300,271.685 190.308,271.646 190.888 M128.028 191.470 C 128.000 192.344,130.514 200.247,130.961 200.695 C 131.093 200.826,131.201 201.308,131.202 201.767 C 131.204 202.225,131.474 203.116,131.802 203.746 C 132.131 204.376,132.400 205.141,132.400 205.446 C 132.400 205.751,132.599 206.000,132.843 206.000 C 133.108 206.000,133.170 205.719,132.997 205.300 C 132.470 204.021,130.084 197.047,129.062 193.800 C 128.508 192.040,128.043 190.992,128.028 191.470 M188.884 200.617 C 190.244 201.977,202.654 202.645,206.800 201.581 C 208.100 201.247,208.071 201.236,206.400 201.419 C 202.807 201.813,196.921 201.634,193.448 201.024 C 189.696 200.365,188.528 200.261,188.884 200.617 M209.200 200.800 C 208.667 201.145,208.667 201.188,209.200 201.188 C 209.530 201.188,210.070 201.013,210.400 200.800 C 210.933 200.455,210.933 200.412,210.400 200.412 C 210.070 200.412,209.530 200.587,209.200 200.800 M133.425 207.401 C 134.032 209.911,141.638 226.096,143.015 227.810 C 143.902 228.913,143.718 228.484,140.788 222.600 C 138.029 217.061,136.336 213.398,134.594 209.200 C 133.359 206.221,133.010 205.685,133.425 207.401 M263.067 214.466 C 261.358 218.265,261.406 219.238,263.127 215.686 C 264.222 213.426,264.990 211.200,264.676 211.200 C 264.599 211.200,263.875 212.670,263.067 214.466 M258.973 223.117 C 256.231 228.563,256.150 228.744,256.716 228.200 C 256.945 227.980,258.070 226.000,259.217 223.800 C 260.363 221.600,261.467 219.591,261.670 219.336 C 261.881 219.070,261.888 218.778,261.685 218.653 C 261.491 218.533,260.271 220.542,258.973 223.117 M143.515 229.256 C 143.418 229.546,143.651 230.118,144.033 230.528 C 144.415 230.938,145.287 232.292,145.970 233.536 C 149.154 239.334,151.344 242.948,155.583 249.400 C 157.462 252.260,159.073 254.780,159.163 255.000 C 159.437 255.671,163.337 261.349,164.092 262.175 C 164.481 262.602,164.800 263.274,164.800 263.668 C 164.800 264.063,165.385 265.024,166.100 265.805 C 168.173 268.070,170.160 270.582,172.391 273.759 C 172.715 274.221,173.975 275.834,175.191 277.343 C 176.406 278.852,177.618 280.469,177.883 280.936 C 178.149 281.404,178.607 281.969,178.900 282.193 C 179.193 282.417,179.961 283.320,180.606 284.200 C 181.252 285.080,182.235 286.265,182.790 286.834 C 183.346 287.402,184.160 288.326,184.600 288.886 C 185.040 289.446,186.269 290.871,187.332 292.052 C 188.395 293.233,190.285 295.346,191.532 296.747 C 192.779 298.148,194.925 300.465,196.300 301.896 C 197.675 303.326,198.800 304.799,198.800 305.168 C 198.800 306.908,201.446 305.635,204.431 302.459 C 210.827 295.652,212.247 294.100,213.280 292.780 C 213.874 292.021,215.698 289.690,217.334 287.600 C 218.969 285.510,220.778 283.326,221.353 282.746 C 221.929 282.166,222.400 281.527,222.400 281.325 C 222.400 281.122,223.030 280.346,223.800 279.600 C 224.570 278.854,225.200 278.079,225.200 277.879 C 225.200 277.679,225.783 276.769,226.496 275.858 C 227.210 274.946,227.975 273.958,228.196 273.662 C 228.418 273.367,229.005 272.716,229.500 272.216 C 229.995 271.717,230.400 271.134,230.400 270.921 C 230.400 270.708,230.935 270.008,231.589 269.367 C 232.243 268.725,232.783 268.072,232.789 267.916 C 232.802 267.582,236.771 261.648,237.500 260.874 C 237.775 260.582,238.000 260.190,238.000 260.002 C 238.000 259.815,238.429 259.151,238.954 258.528 C 239.894 257.411,240.271 256.827,242.552 252.955 C 243.185 251.880,244.281 250.100,244.987 249.000 C 245.693 247.900,247.052 245.650,248.007 244.000 C 248.962 242.350,250.035 240.640,250.391 240.200 C 250.747 239.760,251.625 238.198,252.343 236.730 C 253.060 235.261,253.906 233.844,254.223 233.581 C 254.541 233.317,254.800 232.858,254.800 232.561 C 254.800 232.263,255.159 231.430,255.599 230.710 C 256.038 229.989,256.398 229.229,256.399 229.020 C 256.401 228.395,255.786 229.236,254.512 231.600 C 250.911 238.283,249.497 240.750,246.142 246.200 C 241.350 253.983,237.153 260.417,233.618 265.400 C 232.057 267.600,230.469 269.852,230.090 270.404 C 229.498 271.266,223.094 279.734,219.992 283.757 C 213.833 291.747,201.637 305.200,200.555 305.200 C 200.062 305.200,192.315 297.150,188.428 292.600 C 183.235 286.522,175.833 277.403,172.842 273.400 C 171.033 270.980,169.337 268.730,169.073 268.400 C 167.756 266.757,160.641 256.483,158.188 252.681 C 153.148 244.871,149.964 239.810,149.709 239.200 C 149.571 238.870,149.057 237.954,148.565 237.165 C 148.074 236.376,146.911 234.306,145.979 232.565 C 144.018 228.898,143.753 228.542,143.515 229.256 " stroke="none" fill="#fce5ce" fill-rule="evenodd"></path><path id="path4" d="M167.784 94.427 C 167.415 95.022,167.842 95.346,168.608 95.052 C 168.962 94.917,169.139 94.624,169.002 94.403 C 168.678 93.878,168.116 93.889,167.784 94.427 M172.169 96.321 C 170.552 97.674,171.897 98.476,174.269 97.574 L 175.391 97.147 174.395 96.383 C 173.190 95.456,173.203 95.456,172.169 96.321 M230.100 98.500 C 230.352 99.257,231.600 99.364,231.600 98.629 C 231.600 98.258,231.258 98.000,230.767 98.000 C 230.278 98.000,230.002 98.207,230.100 98.500 M167.274 99.622 C 166.754 99.831,166.467 100.185,166.619 100.431 C 166.814 100.747,167.012 100.748,167.325 100.435 C 167.564 100.196,168.095 100.000,168.504 100.000 C 168.913 100.000,169.136 99.820,169.000 99.600 C 168.708 99.127,168.501 99.130,167.274 99.622 M234.100 101.100 C 234.485 101.187,234.800 101.438,234.800 101.657 C 234.800 102.209,236.501 101.910,236.694 101.325 C 236.800 101.003,236.294 100.864,235.125 100.896 C 234.176 100.921,233.715 101.013,234.100 101.100 M149.298 107.300 C 149.573 108.133,151.319 108.852,151.681 108.281 C 152.048 107.701,150.958 106.800,149.890 106.800 C 149.463 106.800,149.205 107.018,149.298 107.300 M259.478 115.456 C 259.061 115.873,259.589 116.400,260.424 116.400 C 260.851 116.400,261.200 116.130,261.200 115.800 C 261.200 115.207,259.972 114.961,259.478 115.456 M255.471 117.360 C 255.341 117.698,255.395 118.073,255.590 118.194 C 256.113 118.517,256.556 117.596,256.098 117.138 C 255.842 116.882,255.624 116.959,255.471 117.360 M142.480 117.680 C 141.837 118.323,141.873 119.066,142.561 119.330 C 143.051 119.518,143.575 118.591,143.595 117.500 C 143.603 117.046,143.020 117.140,142.480 117.680 M139.481 120.253 C 139.342 120.392,139.418 120.861,139.651 121.296 C 140.150 122.228,141.052 121.634,140.666 120.627 C 140.416 119.975,139.916 119.817,139.481 120.253 M259.600 121.800 C 259.600 122.130,259.870 122.400,260.200 122.400 C 260.530 122.400,260.800 122.130,260.800 121.800 C 260.800 121.470,260.530 121.200,260.200 121.200 C 259.870 121.200,259.600 121.470,259.600 121.800 M136.400 125.800 C 136.400 126.130,136.580 126.400,136.800 126.400 C 137.020 126.400,137.200 126.130,137.200 125.800 C 137.200 125.470,137.020 125.200,136.800 125.200 C 136.580 125.200,136.400 125.470,136.400 125.800 M199.409 129.924 C 198.892 130.442,199.297 130.800,200.400 130.800 C 201.060 130.800,201.600 130.641,201.600 130.447 C 201.600 130.047,199.732 129.602,199.409 129.924 M197.500 130.676 C 197.115 130.776,196.800 131.025,196.800 131.229 C 196.800 131.813,197.850 131.662,198.400 131.000 C 198.903 130.393,198.768 130.344,197.500 130.676 M212.400 132.806 C 211.531 133.377,212.576 133.990,214.400 133.981 L 215.800 133.973 214.856 133.187 C 213.802 132.309,213.281 132.228,212.400 132.806 M217.600 135.400 C 218.137 136.047,219.600 136.227,219.600 135.647 C 219.600 135.452,219.195 135.185,218.700 135.052 C 217.299 134.677,217.062 134.752,217.600 135.400 M176.055 139.446 C 175.442 139.876,175.266 140.226,175.531 140.491 C 176.048 141.008,176.648 140.624,176.914 139.606 C 177.168 138.637,177.201 138.644,176.055 139.446 M128.663 139.470 C 128.197 139.937,128.371 142.076,128.862 141.913 C 129.624 141.659,130.016 140.111,129.439 139.633 C 129.157 139.399,128.808 139.325,128.663 139.470 M222.138 142.217 C 222.008 142.557,222.009 142.942,222.141 143.074 C 222.426 143.359,223.600 142.455,223.600 141.951 C 223.600 141.347,222.387 141.568,222.138 142.217 M172.500 143.065 C 172.225 143.176,172.000 143.541,172.000 143.876 C 172.000 144.268,172.226 144.399,172.633 144.243 C 172.981 144.109,173.341 144.000,173.433 144.000 C 173.525 144.000,173.600 143.730,173.600 143.400 C 173.600 142.784,173.370 142.714,172.500 143.065 M274.161 147.358 C 274.043 147.665,274.010 148.610,274.088 149.458 L 274.230 151.000 274.712 149.882 C 275.645 147.717,275.740 146.800,275.031 146.800 C 274.670 146.800,274.279 147.051,274.161 147.358 M275.892 151.442 C 275.731 151.602,275.600 152.009,275.600 152.347 C 275.600 152.797,275.718 152.842,276.045 152.515 C 276.290 152.270,276.421 151.863,276.337 151.610 C 276.252 151.357,276.052 151.281,275.892 151.442 M274.880 153.000 C 274.880 153.660,275.024 154.650,275.200 155.200 C 275.511 156.172,275.520 156.167,275.520 155.000 C 275.520 154.340,275.376 153.350,275.200 152.800 C 274.889 151.828,274.880 151.833,274.880 153.000 M275.200 174.200 C 275.200 175.263,275.273 176.058,275.363 175.967 C 275.672 175.650,275.775 172.842,275.488 172.555 C 275.330 172.396,275.200 173.137,275.200 174.200 M278.256 186.278 C 277.778 186.756,277.998 187.600,278.600 187.600 C 278.930 187.600,279.200 187.341,279.200 187.024 C 279.200 186.355,278.629 185.904,278.256 186.278 M219.734 188.627 C 219.401 189.496,220.247 190.313,220.853 189.707 C 221.365 189.195,221.048 188.000,220.400 188.000 C 220.166 188.000,219.867 188.282,219.734 188.627 M225.600 188.987 C 225.600 189.345,225.835 189.485,226.200 189.345 C 226.530 189.218,226.800 188.954,226.800 188.757 C 226.800 188.561,226.530 188.400,226.200 188.400 C 225.870 188.400,225.600 188.664,225.600 188.987 M173.200 189.200 C 173.200 189.420,173.470 189.600,173.800 189.600 C 174.130 189.600,174.400 189.420,174.400 189.200 C 174.400 188.980,174.130 188.800,173.800 188.800 C 173.470 188.800,173.200 188.980,173.200 189.200 M175.200 190.880 C 175.200 191.538,176.698 192.511,177.216 192.190 C 177.887 191.775,177.641 190.743,176.900 190.865 C 176.515 190.928,175.975 190.839,175.700 190.666 C 175.394 190.475,175.200 190.558,175.200 190.880 M222.404 190.995 C 221.757 191.775,222.206 192.895,223.099 192.726 C 223.985 192.558,224.335 190.400,223.476 190.400 C 223.158 190.400,222.676 190.668,222.404 190.995 M217.802 194.149 C 217.076 194.680,217.080 194.708,217.922 194.975 C 218.943 195.299,219.600 194.986,219.600 194.176 C 219.600 193.448,218.777 193.436,217.802 194.149 M271.200 198.200 C 271.200 198.530,271.380 198.800,271.600 198.800 C 271.820 198.800,272.000 198.530,272.000 198.200 C 272.000 197.870,271.820 197.600,271.600 197.600 C 271.380 197.600,271.200 197.870,271.200 198.200 M125.600 199.600 C 125.600 200.347,125.707 200.453,126.080 200.080 C 126.453 199.707,126.453 199.493,126.080 199.120 C 125.707 198.747,125.600 198.853,125.600 199.600 M209.200 199.400 C 209.200 199.730,209.393 200.000,209.629 200.000 C 209.864 200.000,210.327 199.730,210.657 199.400 C 211.190 198.867,211.143 198.800,210.229 198.800 C 209.581 198.800,209.200 199.022,209.200 199.400 M193.600 200.349 C 193.600 200.597,194.050 200.800,194.600 200.800 C 195.150 200.800,195.600 201.005,195.600 201.256 C 195.600 201.571,196.295 201.640,197.842 201.481 C 201.865 201.065,201.328 200.345,196.801 200.082 C 194.581 199.954,193.600 200.036,193.600 200.349 M127.480 203.736 C 127.367 204.031,127.435 204.526,127.631 204.836 C 127.891 205.247,127.989 205.101,127.994 204.300 C 128.001 203.106,127.804 202.890,127.480 203.736 M265.200 218.013 C 265.200 218.791,266.202 219.532,266.650 219.084 C 266.950 218.783,266.056 217.200,265.586 217.200 C 265.374 217.200,265.200 217.566,265.200 218.013 M139.717 224.064 C 139.244 224.639,139.077 225.367,139.153 226.528 C 139.229 227.706,140.972 227.238,141.117 226.000 C 141.277 224.634,140.327 223.322,139.717 224.064 M256.624 230.247 C 256.323 231.446,256.522 231.792,257.333 231.481 C 257.700 231.340,257.831 230.898,257.704 230.232 C 257.450 228.905,256.959 228.912,256.624 230.247 M254.064 234.896 C 253.446 235.514,253.458 237.314,254.078 237.107 C 254.647 236.918,255.261 234.885,254.829 234.618 C 254.663 234.516,254.319 234.641,254.064 234.896 M256.400 239.800 C 256.400 240.130,256.580 240.400,256.800 240.400 C 257.020 240.400,257.200 240.130,257.200 239.800 C 257.200 239.470,257.020 239.200,256.800 239.200 C 256.580 239.200,256.400 239.470,256.400 239.800 M148.400 240.967 C 148.400 241.315,148.685 241.600,149.033 241.600 C 149.382 241.600,149.595 241.386,149.508 241.125 C 149.261 240.383,148.400 240.260,148.400 240.967 M152.105 245.876 C 152.477 246.248,152.915 246.418,153.079 246.254 C 153.243 246.091,153.112 245.789,152.788 245.584 C 151.815 244.969,151.382 245.153,152.105 245.876 M237.677 261.230 C 237.755 261.466,237.991 261.660,238.200 261.660 C 238.409 261.660,238.645 261.466,238.723 261.230 C 238.802 260.993,238.567 260.800,238.200 260.800 C 237.833 260.800,237.598 260.993,237.677 261.230 M234.133 267.031 C 234.000 267.378,234.191 267.963,234.559 268.331 C 235.184 268.956,235.221 268.914,235.129 267.700 C 235.023 266.317,234.533 265.988,234.133 267.031 M169.802 272.797 C 169.316 273.584,170.191 274.534,170.764 273.843 C 171.271 273.233,171.060 272.400,170.400 272.400 C 170.206 272.400,169.937 272.579,169.802 272.797 M228.061 274.747 C 227.070 275.607,226.918 276.800,227.800 276.800 C 228.130 276.800,228.400 276.754,228.400 276.697 C 228.400 276.641,228.567 276.011,228.772 275.297 C 229.207 273.781,229.190 273.768,228.061 274.747 M211.819 295.600 C 211.089 296.952,211.221 298.088,212.079 297.858 C 212.586 297.722,213.106 297.608,213.236 297.605 C 213.436 297.601,214.400 295.807,214.400 295.439 C 214.400 295.231,211.934 295.386,211.819 295.600 M188.678 296.423 C 188.521 297.024,188.724 297.365,189.433 297.688 C 190.697 298.264,191.067 297.847,190.400 296.599 C 189.751 295.387,188.970 295.307,188.678 296.423 M208.278 299.623 C 208.141 300.146,208.233 300.389,208.531 300.290 C 209.107 300.098,209.407 298.800,208.876 298.800 C 208.666 298.800,208.396 299.170,208.278 299.623 M192.943 300.600 C 193.273 300.930,193.646 301.200,193.771 301.200 C 193.897 301.200,194.000 300.930,194.000 300.600 C 194.000 300.260,193.641 300.000,193.171 300.000 C 192.435 300.000,192.410 300.067,192.943 300.600 M204.881 302.341 C 204.466 302.605,204.485 302.773,204.976 303.180 C 205.718 303.796,206.800 303.459,206.800 302.613 C 206.800 301.955,205.729 301.803,204.881 302.341 M201.200 307.600 C 201.200 307.820,201.459 308.000,201.776 308.000 C 202.093 308.000,202.464 307.820,202.600 307.600 C 202.736 307.380,202.477 307.200,202.024 307.200 C 201.571 307.200,201.200 307.380,201.200 307.600 " stroke="none" fill="#ecfbf5" fill-rule="evenodd"></path></g></svg>